<svg width="256" height="256" viewBox="0 0 256 256" xmlns="http://www.w3.org/2000/svg">
  <defs>
    <linearGradient id="busGradient" x1="0%" y1="0%" x2="100%" y2="100%">
      <stop offset="0%" style="stop-color:#3B82F6;stop-opacity:1" />
      <stop offset="100%" style="stop-color:#1E40AF;stop-opacity:1" />
    </linearGradient>
  </defs>
  
  <!-- Background circle -->
  <circle cx="128" cy="128" r="120" fill="url(#busGradient)" stroke="#1E40AF" stroke-width="4"/>
  
  <!-- Bus body -->
  <rect x="60" y="100" width="136" height="80" rx="8" ry="8" fill="#FFFFFF" stroke="#1E40AF" stroke-width="2"/>
  
  <!-- Bus windows -->
  <rect x="70" y="110" width="25" height="20" rx="2" ry="2" fill="#3B82F6"/>
  <rect x="100" y="110" width="25" height="20" rx="2" ry="2" fill="#3B82F6"/>
  <rect x="130" y="110" width="25" height="20" rx="2" ry="2" fill="#3B82F6"/>
  <rect x="160" y="110" width="25" height="20" rx="2" ry="2" fill="#3B82F6"/>
  
  <!-- Bus door -->
  <rect x="70" y="140" width="20" height="35" rx="2" ry="2" fill="#E5E7EB" stroke="#6B7280" stroke-width="1"/>
  
  <!-- Bus wheels -->
  <circle cx="85" cy="185" r="12" fill="#374151" stroke="#1F2937" stroke-width="2"/>
  <circle cx="85" cy="185" r="6" fill="#6B7280"/>
  <circle cx="170" cy="185" r="12" fill="#374151" stroke="#1F2937" stroke-width="2"/>
  <circle cx="170" cy="185" r="6" fill="#6B7280"/>
  
  <!-- Clock icon overlay -->
  <circle cx="200" cy="80" r="20" fill="#FBBF24" stroke="#F59E0B" stroke-width="2"/>
  <line x1="200" y1="70" x2="200" y2="80" stroke="#1F2937" stroke-width="2" stroke-linecap="round"/>
  <line x1="200" y1="80" x2="205" y2="85" stroke="#1F2937" stroke-width="2" stroke-linecap="round"/>
</svg>